<svg xmlns="http://www.w3.org/2000/svg" viewBox="0 0 891.15 540.32"><defs><style>.cls-1{fill:#fff;}.cls-2{fill:#ec1c24;}</style></defs><title>sum-it-white-svg</title><g id="Layer_2" data-name="Layer 2"><g id="Layer_1-2" data-name="Layer 1"><path class="cls-1" d="M388.16,298.22a18.83,18.83,0,0,1-7.59-7.07,20.77,20.77,0,0,1,0-20.62,19,19,0,0,1,7.59-7.07A23.12,23.12,0,0,1,399,260.93a23.8,23.8,0,0,1,9.9,2,18.35,18.35,0,0,1,7.18,5.66l-8.1,7.23q-3.54-4.45-8.33-4.46a8.47,8.47,0,0,0-6.47,2.59,11,11,0,0,0,0,13.87,8.5,8.5,0,0,0,6.47,2.58q4.8,0,8.33-4.46l8.1,7.24a18.33,18.33,0,0,1-7.18,5.65,23.8,23.8,0,0,1-9.9,2A23.12,23.12,0,0,1,388.16,298.22Z"/><path class="cls-1" d="M454.2,290.2v9.68H422.54V261.8h31v9.69H435.16V276h16.11v9.24H435.16v5Z"/><path class="cls-1" d="M499.41,261.8v38.08H488.86l-14.47-17.3v17.3H461.87V261.8h10.56l14.47,17.3V261.8Z"/><path class="cls-1" d="M516.6,271.76H505.45v-10h35.14v10H529.44v28.12H516.6Z"/><path class="cls-1" d="M570.67,293.25H556.2l-2.55,6.63H540.59l16.65-38.08h12.62l16.65,38.08H573.23ZM567.14,284l-3.7-9.58-3.7,9.58Z"/><path class="cls-1" d="M607.61,290.31h-3.48v9.57H591.29V261.8h18.33a22.51,22.51,0,0,1,9.2,1.74,14.08,14.08,0,0,1,6.31,19.75,13,13,0,0,1-5.33,4.84l8,11.75h-13.7Zm5.12-17.44a5.72,5.72,0,0,0-3.92-1.17h-4.68v8.92h4.68a5.72,5.72,0,0,0,3.92-1.16,4.83,4.83,0,0,0,0-6.59Z"/><path class="cls-1" d="M687.2,289.93v9.95h-35V292l17.41-20.23H652.76v-10h33.57v7.89l-17.41,20.24Z"/><path class="cls-1" d="M719.62,293.25H705.15l-2.56,6.63H689.54l16.65-38.08h12.62l16.64,38.08H722.18ZM716.09,284l-3.7-9.58-3.7,9.58Z"/><path class="cls-1" d="M379.35,321.8h12.84v38.08H379.35Z"/><path class="cls-1" d="M438.65,321.8v38.08H428.09l-14.47-17.3v17.3H401.11V321.8h10.55l14.47,17.3V321.8Z"/><path class="cls-1" d="M460.4,331.49V338h15.89v9.69H460.4v12.18H447.57V321.8h30.95v9.69Z"/><path class="cls-1" d="M494,358.2a19.52,19.52,0,0,1,0-34.71,25.11,25.11,0,0,1,22.09,0,19.52,19.52,0,0,1,0,34.71,25.2,25.2,0,0,1-22.09,0Zm15.37-9a8.29,8.29,0,0,0,3.07-3.32,11.67,11.67,0,0,0,0-10.06,8.36,8.36,0,0,0-3.07-3.32,8.58,8.58,0,0,0-8.65,0,8.45,8.45,0,0,0-3.08,3.32,11.67,11.67,0,0,0,0,10.06,8.39,8.39,0,0,0,3.08,3.32,8.58,8.58,0,0,0,8.65,0Z"/><path class="cls-1" d="M550.22,350.31h-3.48v9.57H533.9V321.8h18.33a22.51,22.51,0,0,1,9.2,1.74,14.08,14.08,0,0,1,6.31,19.75,13.06,13.06,0,0,1-5.33,4.84l8,11.75H556.69Zm5.11-17.44a5.69,5.69,0,0,0-3.91-1.17h-4.68v8.92h4.68a5.69,5.69,0,0,0,3.91-1.16,4.8,4.8,0,0,0,0-6.59Z"/><path class="cls-1" d="M611.15,359.88,611,342.53l-8.27,13.93h-5.66l-8.27-13.33v16.75H577.15V321.8H587.7l12.41,20.29,12.07-20.29h10.56l.1,38.08Z"/><path class="cls-1" d="M657.71,353.25H643.24l-2.55,6.63H627.63l16.65-38.08H656.9l16.65,38.08H660.27ZM654.18,344l-3.7-9.58-3.7,9.58Z"/><path class="cls-1" d="M686.6,358.22a18.83,18.83,0,0,1-7.59-7.07,20.77,20.77,0,0,1,0-20.62,19,19,0,0,1,7.59-7.07,23.12,23.12,0,0,1,10.88-2.53,23.8,23.8,0,0,1,9.9,2,18.35,18.35,0,0,1,7.18,5.66l-8.1,7.23q-3.54-4.45-8.33-4.46a8.47,8.47,0,0,0-6.47,2.59,11,11,0,0,0,0,13.87,8.5,8.5,0,0,0,6.47,2.58q4.8,0,8.33-4.46l8.1,7.24a18.33,18.33,0,0,1-7.18,5.65,23.8,23.8,0,0,1-9.9,2A23.12,23.12,0,0,1,686.6,358.22Z"/><path class="cls-1" d="M721,321.8h12.84v38.08H721Z"/><path class="cls-1" d="M744.29,359.31a14.8,14.8,0,0,1-5.95-4.21l6.9-8.16a12.45,12.45,0,0,0,3,2.82,5.6,5.6,0,0,0,3,.93,3.91,3.91,0,0,0,3.08-1.2,5.21,5.21,0,0,0,1.06-3.53V331.49H742.47V321.8h25.62v23.39q0,7.79-4,11.67t-11.72,3.89A21.69,21.69,0,0,1,744.29,359.31Z"/><path class="cls-1" d="M781.66,359.69a25.08,25.08,0,0,1-7.37-2.85l4.14-9.36a26.56,26.56,0,0,0,6.09,2.53A24,24,0,0,0,791,351a9.91,9.91,0,0,0,3.81-.52,1.65,1.65,0,0,0,1.14-1.55c0-.79-.49-1.39-1.49-1.79a31.94,31.94,0,0,0-4.92-1.31,56.1,56.1,0,0,1-7.35-2,12.55,12.55,0,0,1-5.11-3.48,9.46,9.46,0,0,1-2.18-6.56,11.32,11.32,0,0,1,2-6.53,13.3,13.3,0,0,1,6-4.62,24.83,24.83,0,0,1,9.71-1.69,35.32,35.32,0,0,1,7.69.84,24.33,24.33,0,0,1,6.67,2.48l-3.86,9.3a23.73,23.73,0,0,0-10.61-2.83q-4.95,0-4.95,2.4,0,1.14,1.47,1.71a30.65,30.65,0,0,0,4.84,1.22,50,50,0,0,1,7.34,1.88,12.76,12.76,0,0,1,5.2,3.46,9.24,9.24,0,0,1,2.2,6.52,11.19,11.19,0,0,1-2,6.51,13.54,13.54,0,0,1-6,4.62,24.7,24.7,0,0,1-9.71,1.71A39.9,39.9,0,0,1,781.66,359.69Z"/><path class="cls-1" d="M830.65,347.26l-2.88,3.21v9.41H815.15V321.8h12.62v13.82l12.51-13.82h14L839,338.56l16,21.32H840.17Z"/><path class="cls-1" d="M891.15,350.2v9.68H859.48V321.8h31v9.69H872.11V336h16.1v9.24h-16.1v5Z"/><path class="cls-1" d="M387.62,391.76H376.47v-10h35.14v10H400.46v28.12H387.62Z"/><path class="cls-1" d="M449.31,410.2v9.68H417.65V381.8h31v9.69H430.27V396h16.1v9.24h-16.1v5Z"/><path class="cls-1" d="M494.51,381.8v38.08H481.68v-14H469.82v14H457V381.8h12.84v13.49h11.86V381.8Z"/><path class="cls-1" d="M541,381.8v38.08H530.42L516,402.58v17.3H503.44V381.8H514l14.47,17.3V381.8Z"/><path class="cls-1" d="M558.81,418.2a19.52,19.52,0,0,1,0-34.71,25.11,25.11,0,0,1,22.09,0,19.52,19.52,0,0,1,0,34.71,25.2,25.2,0,0,1-22.09,0Zm15.37-9a8.39,8.39,0,0,0,3.08-3.32,11.67,11.67,0,0,0,0-10.06,8.45,8.45,0,0,0-3.08-3.32,8.58,8.58,0,0,0-8.65,0,8.36,8.36,0,0,0-3.07,3.32,11.67,11.67,0,0,0,0,10.06,8.29,8.29,0,0,0,3.07,3.32,8.58,8.58,0,0,0,8.65,0Z"/><path class="cls-1" d="M598.74,381.8h12.84v28.13h17.19v9.95h-30Z"/><path class="cls-1" d="M643.41,418.2a19.52,19.52,0,0,1,0-34.71,25.08,25.08,0,0,1,22.08,0,19.52,19.52,0,0,1,0,34.71,25.17,25.17,0,0,1-22.08,0Zm15.36-9a8.32,8.32,0,0,0,3.08-3.32,11.67,11.67,0,0,0,0-10.06,8.38,8.38,0,0,0-3.08-3.32,8.58,8.58,0,0,0-8.65,0,8.43,8.43,0,0,0-3.07,3.32,11.67,11.67,0,0,0,0,10.06,8.36,8.36,0,0,0,3.07,3.32,8.58,8.58,0,0,0,8.65,0Z"/><path class="cls-1" d="M708.52,399.81h11.16v16.1a25.77,25.77,0,0,1-7.84,3.59,32.07,32.07,0,0,1-8.76,1.25,23.21,23.21,0,0,1-10.93-2.53,18.83,18.83,0,0,1-7.59-7.07,20.7,20.7,0,0,1,0-20.62,18.86,18.86,0,0,1,7.67-7.07,23.94,23.94,0,0,1,11.13-2.53,25.51,25.51,0,0,1,10,1.88,18.69,18.69,0,0,1,7.37,5.47l-8.21,7.23a10.93,10.93,0,0,0-8.54-4.19,9,9,0,0,0-6.75,2.56,10.9,10.9,0,0,0,0,13.87,8.67,8.67,0,0,0,6.6,2.61,12.17,12.17,0,0,0,4.68-.92Z"/><path class="cls-1" d="M727.89,381.8h12.84v38.08H727.89Z"/><path class="cls-1" d="M751.2,419.31a14.9,14.9,0,0,1-6-4.21l6.91-8.16a12.43,12.43,0,0,0,3,2.82,5.64,5.64,0,0,0,3.05.93,3.87,3.87,0,0,0,3.07-1.2,5.15,5.15,0,0,0,1.06-3.53V391.49H749.38V381.8H775v23.39q0,7.79-4,11.67t-11.72,3.89A21.65,21.65,0,0,1,751.2,419.31Z"/><path class="cls-1" d="M815.26,410.2v9.68H783.59V381.8h31v9.69H796.22V396h16.1v9.24h-16.1v5Z"/><path class="cls-1" d="M384.76,479a17,17,0,0,1-6.28-3.45l2-4.24a16.81,16.81,0,0,0,5.58,3.18,20.33,20.33,0,0,0,7,1.22q4.72,0,7.07-1.6a4.94,4.94,0,0,0,2.34-4.27,4.2,4.2,0,0,0-1.28-3.18,8.4,8.4,0,0,0-3.15-1.88c-1.26-.44-3-.93-5.31-1.47a54.28,54.28,0,0,1-6.93-2.07,11.5,11.5,0,0,1-4.52-3.18,8.49,8.49,0,0,1-1.88-5.79,9.82,9.82,0,0,1,1.61-5.5,11,11,0,0,1,4.87-3.91,19.68,19.68,0,0,1,8.1-1.47,25.7,25.7,0,0,1,6.64.87,17.55,17.55,0,0,1,5.6,2.5l-1.79,4.35a20,20,0,0,0-5.12-2.31A18.92,18.92,0,0,0,394,446q-4.62,0-6.93,1.69a5.15,5.15,0,0,0-2.31,4.35,4.14,4.14,0,0,0,1.3,3.18,9.1,9.1,0,0,0,3.24,1.91,51.71,51.71,0,0,0,5.25,1.44,55.72,55.72,0,0,1,6.91,2.06,11.67,11.67,0,0,1,4.48,3.16,8.26,8.26,0,0,1,1.88,5.71,9.7,9.7,0,0,1-1.63,5.47,11,11,0,0,1-4.95,3.92,20.48,20.48,0,0,1-8.16,1.44A26,26,0,0,1,384.76,479Z"/><path class="cls-1" d="M451.54,441.8l-16.7,38.08h-5.39L412.7,441.8h5.87l13.71,31.28L446.1,441.8Z"/><path class="cls-1" d="M486.74,475.15v4.73H459.1V441.8H486v4.73H464.54v11.7h19.09v4.63H464.54v12.29Z"/><path class="cls-1" d="M502.18,476q-4.23-4.37-4.24-12.52V441.8h5.44v21.44q0,12.24,10.72,12.24,5.22,0,8-3t2.78-9.22V441.8h5.28v21.65q0,8.22-4.25,12.54T514,480.32Q506.44,480.32,502.18,476Z"/><path class="cls-1" d="M550.74,477.79a18.59,18.59,0,0,1-7.21-7,20.39,20.39,0,0,1,0-20,18.48,18.48,0,0,1,7.23-7,21.17,21.17,0,0,1,10.34-2.53,21.74,21.74,0,0,1,8.16,1.49,16.69,16.69,0,0,1,6.31,4.44L572,450.72a14.16,14.16,0,0,0-10.71-4.51,15.5,15.5,0,0,0-7.67,1.9,13.74,13.74,0,0,0-5.36,5.25,15.46,15.46,0,0,0,0,15,13.74,13.74,0,0,0,5.36,5.25,15.5,15.5,0,0,0,7.67,1.91A14.23,14.23,0,0,0,572,470.91l3.54,3.42a16.8,16.8,0,0,1-6.34,4.46,21.33,21.33,0,0,1-8.19,1.53A21.07,21.07,0,0,1,550.74,477.79Zm19.66-46.16-7.23,7.07h-5l-7.23-7.07h4.73l5,4.13,5-4.13Z"/><path class="cls-1" d="M586.07,441.8h5.44v38.08h-5.44Z"/><path class="cls-1" d="M605.65,441.8h5.44v33.35h20.62v4.73H605.65Z"/><path class="cls-1" d="M640.69,441.8h5.44v38.08h-5.44Z"/><path class="cls-1" d="M663.07,479a17,17,0,0,1-6.28-3.45l2-4.24a16.81,16.81,0,0,0,5.58,3.18,20.33,20.33,0,0,0,7,1.22q4.73,0,7.07-1.6a4.94,4.94,0,0,0,2.34-4.27,4.2,4.2,0,0,0-1.28-3.18,8.4,8.4,0,0,0-3.15-1.88c-1.26-.44-3-.93-5.31-1.47a54.28,54.28,0,0,1-6.93-2.07,11.5,11.5,0,0,1-4.52-3.18,8.49,8.49,0,0,1-1.88-5.79,9.82,9.82,0,0,1,1.61-5.5,11,11,0,0,1,4.87-3.91,19.68,19.68,0,0,1,8.1-1.47,25.7,25.7,0,0,1,6.64.87,17.55,17.55,0,0,1,5.6,2.5l-1.79,4.35a20,20,0,0,0-5.12-2.31,18.92,18.92,0,0,0-5.33-.79q-4.62,0-6.93,1.69A5.16,5.16,0,0,0,663,452a4.15,4.15,0,0,0,1.31,3.18,9.1,9.1,0,0,0,3.24,1.91,51,51,0,0,0,5.25,1.44,55.72,55.72,0,0,1,6.91,2.06,11.67,11.67,0,0,1,4.48,3.16,8.26,8.26,0,0,1,1.88,5.71,9.7,9.7,0,0,1-1.63,5.47,11,11,0,0,1-5,3.92,20.48,20.48,0,0,1-8.16,1.44A26,26,0,0,1,663.07,479Zm18.74-47.35-7.23,7.07h-5l-7.23-7.07h4.73l5,4.13,5-4.13Z"/><path class="cls-1" d="M703.79,446.53H690.73V441.8h31.5v4.73H709.18v33.35h-5.39Z"/><path class="cls-1" d="M758.52,475.15v4.73H730.88V441.8h26.88v4.73H736.32v11.7h19.1v4.63h-19.1v12.29Z"/><path class="cls-1" d="M385.88,536q-4.25-4.37-4.25-12.52V501.8h5.44v21.44q0,12.24,10.72,12.24,5.22,0,8-3t2.77-9.22V501.8h5.28v21.65q0,8.22-4.24,12.54t-11.86,4.33Q390.12,540.32,385.88,536Z"/><path class="cls-1" d="M480.37,539.88l-.05-27.74-13.77,23.12h-2.5l-13.76-23v27.58h-5.23V501.8h4.47l15.88,26.77,15.67-26.77h4.46l0,38.08Z"/><path class="cls-1" d="M506.54,537.79a18.73,18.73,0,0,1-7.27-7,20.16,20.16,0,0,1,0-19.91,18.59,18.59,0,0,1,7.27-7,22.48,22.48,0,0,1,20.72,0,18.44,18.44,0,0,1,7.24,7,20.39,20.39,0,0,1,0,20,18.53,18.53,0,0,1-7.24,7,22.48,22.48,0,0,1-20.72,0Zm17.92-4.22a14,14,0,0,0,5.28-5.25,15.46,15.46,0,0,0,0-15,14,14,0,0,0-5.28-5.25,14.94,14.94,0,0,0-7.53-1.9,15.22,15.22,0,0,0-7.59,1.9,13.79,13.79,0,0,0-5.33,5.25,15.46,15.46,0,0,0,0,15,13.79,13.79,0,0,0,5.33,5.25,15.23,15.23,0,0,0,7.59,1.91A15,15,0,0,0,524.46,533.57Z"/><path class="cls-1" d="M551,539a17,17,0,0,1-6.28-3.45l2-4.24a16.81,16.81,0,0,0,5.58,3.18,20.41,20.41,0,0,0,7,1.22q4.72,0,7.07-1.6a4.94,4.94,0,0,0,2.34-4.27,4.2,4.2,0,0,0-1.28-3.18,8.4,8.4,0,0,0-3.15-1.88,54.81,54.81,0,0,0-5.31-1.47,54.78,54.78,0,0,1-6.93-2.07,11.5,11.5,0,0,1-4.52-3.18,8.49,8.49,0,0,1-1.87-5.79,9.81,9.81,0,0,1,1.6-5.5,11,11,0,0,1,4.87-3.91,19.71,19.71,0,0,1,8.1-1.47,25.64,25.64,0,0,1,6.64.87,17.45,17.45,0,0,1,5.6,2.5l-1.79,4.35a20.11,20.11,0,0,0-5.11-2.31,19,19,0,0,0-5.34-.79q-4.62,0-6.93,1.69a5.15,5.15,0,0,0-2.31,4.35,4.14,4.14,0,0,0,1.3,3.18,9.1,9.1,0,0,0,3.24,1.91,52.47,52.47,0,0,0,5.25,1.44,55.19,55.19,0,0,1,6.91,2.06,11.78,11.78,0,0,1,4.49,3.16,8.31,8.31,0,0,1,1.87,5.71,9.7,9.7,0,0,1-1.63,5.47,11,11,0,0,1-5,3.92,20.48,20.48,0,0,1-8.16,1.44A26,26,0,0,1,551,539Z"/><path class="cls-1" d="M591.67,506.53h-13V501.8h31.49v4.73H597.06v33.35h-5.39Z"/><path class="cls-1" d="M641.12,530.36H620.89l-4.19,9.52h-5.61l17.25-38.08h5.38L651,539.88h-5.71Zm-1.9-4.35L631,507.35,622.79,526Z"/><path class="cls-1" d="M684.86,539.88l-8.21-11.69c-1,.07-1.82.1-2.4.1h-9.41v11.59H659.4V501.8h14.85c4.93,0,8.82,1.18,11.64,3.54a12,12,0,0,1,4.25,9.74,12.72,12.72,0,0,1-2.18,7.5,12.28,12.28,0,0,1-6.2,4.52l9,12.78ZM682,521.44a7.77,7.77,0,0,0,2.72-6.36,7.69,7.69,0,0,0-2.72-6.34q-2.73-2.21-7.89-2.21h-9.25v17.14h9.25Q679.25,523.67,682,521.44Z"/><path class="cls-1" d="M705.59,536q-4.25-4.37-4.25-12.52V501.8h5.44v21.44q0,12.24,10.72,12.24,5.22,0,8-3t2.77-9.22V501.8h5.28v21.65q0,8.22-4.24,12.54t-11.86,4.33Q709.83,540.32,705.59,536Z"/><path class="cls-1" d="M367.91,14.91,588,235.05H367.91Z"/><path class="cls-1" d="M140,84.09c24.5,26.67,34.17,57.87,25.11,93.21-10,39-35.64,63.76-74.89,72.58C55.8,257.61,25.63,247.74,0,224Z"/><path class="cls-1" d="M41.17,168.48C16.3,141.27,6.75,109.68,16.28,74,26.45,35.93,51.78,11.56,90.22,2.72c34.64-8,65,1.83,90.92,25.79C134.4,75.26,88,121.63,41.17,168.48Z"/><path class="cls-1" d="M174.73,245H358.2c-1,30.46-12.71,55.45-37.27,73.09-31.53,22.66-65.49,24.92-99.42,6.06C191.15,307.32,176.47,280.07,174.73,245Z"/><path class="cls-1" d="M599.52,9.93v222.3L488.27,121Z"/><path class="cls-1" d="M672.44,84.26c-6.61,0-12.47-.12-18.33,0-2.81.08-4-.58-3.91-3.71.24-6.36.07-12.73.07-19.42h67.81c0,7.13.08,14.09-.12,21.05,0,.7-1.75,1.9-2.72,1.94-4.86.2-9.74.08-14.61.1-1.34,0-2.68.11-4.51.19V235.85H672.44Z"/><path class="cls-1" d="M619.11,60.87c7.65,0,14.63-.07,21.61.09.75,0,1.69,1.31,2.14,2.2a6.36,6.36,0,0,1,.09,2.59V231.07c0,5,0,5-5.12,5s-10.25-.13-15.37,0c-2.69.1-3.42-.92-3.39-3.47.11-9.74,0-19.49,0-29.24V60.87Z"/><rect class="cls-2" x="174.73" y="51.58" width="183.47" height="183.47"/></g></g></svg>